<svg width="32" height="34" viewBox="0 0 32 34" fill="none" xmlns="http://www.w3.org/2000/svg">
<path d="M16.6719 16.3456C16.6719 13.5624 19.0009 11.3068 21.8724 11.3068H22.6247C22.6451 11.3075 22.6677 11.3062 22.6889 11.3062C25.9109 11.3062 28.5235 13.8384 28.5235 16.9599C28.5235 20.0814 25.9109 22.613 22.6889 22.613C22.6677 22.613 22.6451 22.6124 22.624 22.6124L21.8724 22.613C19.0009 22.613 16.6719 20.3562 16.6719 17.5736V16.3456Z" fill="#00B6FF"/>
<path d="M4.88672 28.2672C4.88672 25.1451 7.4993 22.6128 10.7213 22.6128L16.6741 22.6135V28.209C16.6741 31.3636 14.0055 33.9197 10.75 33.9197C7.52868 33.9197 4.88672 31.3887 4.88672 28.2672Z" fill="#24CB71"/>
<path d="M16.6719 0.000662035V11.3069H22.6247C22.6451 11.3062 22.6677 11.3075 22.6889 11.3075C25.9109 11.3075 28.5235 8.77527 28.5235 5.65377C28.5235 2.53162 25.9109 0 22.6889 0C22.6677 0 22.6451 0.000662035 22.624 0.000662035H16.6719Z" fill="#FF7237"/>
<path d="M4.88672 5.65294C4.88672 8.77509 7.4993 11.3067 10.7213 11.3067H16.6741V0.000488281H10.7206C7.4993 0.000488281 4.88672 2.53145 4.88672 5.65294Z" fill="#FF3737"/>
<path d="M4.88672 16.9606C4.88672 20.0827 7.4993 22.6143 10.7213 22.6143H16.6741V11.3081H10.7206C7.4993 11.3081 4.88672 13.8391 4.88672 16.9606Z" fill="#874FFF"/>
<rect x="19.0664" y="6.5957" width="9.45557" height="4.52267" rx="2.26133" fill="white"/>
<path d="M6.1301 8.59082H4.89062V9.77652H6.1301V8.59082Z" fill="black"/>
<path d="M23.3039 8.59082H22.0645V9.77652H23.3039V8.59082Z" fill="black"/>
<path d="M0 6.21875V8.55627H1.23948V9.74197H2.47895V10.9277H3.71843V12.1134H12.2885V10.9277H13.528V9.74197H14.7675V7.40445H17.211V9.74197H18.4505V10.9277H19.69V12.1134H28.2601V10.9277H29.4995V9.74197H30.739V8.55627H31.8722V6.21875H0ZM8.57009 10.9277H7.33062V9.74197H6.09114V10.9277H4.85166V9.74197H3.61219V8.55627H2.37271V7.37057H3.61219V8.55627H4.85166V7.37057H6.09114V8.55627H7.33062V9.74197H8.57009V10.9277ZM25.7457 10.9277H24.5062V9.74197H23.2667V10.9277H22.0273V9.74197H20.7878V8.55627H19.5483V7.37057H20.7878V8.55627H22.0273V7.37057H23.2667V8.55627H24.5062V9.74197H25.7457V10.9277Z" fill="black"/>
<path d="M12.4009 13.3047C12.0324 13.3047 11.6761 13.449 11.4101 13.7059C11.1442 13.9628 10.9905 14.3112 10.9829 14.6745C10.9752 15.0378 11.1143 15.3862 11.3694 15.6431C11.6245 15.9 11.9748 16.0443 12.3433 16.0443C12.3433 16.0443 12.3433 16.0443 12.3433 16.0443C12.5056 16.0443 12.668 16.0443 12.8303 16.0443C14.7134 16.0443 16.5965 16.0444 18.4796 16.0444C19.0005 16.0383 19.5019 16.3557 19.7113 16.8192C19.7447 16.891 19.7716 16.9661 19.7919 17.0439C19.883 17.3939 20.1123 17.691 20.4293 17.8699C20.7462 18.0487 21.1249 18.0946 21.482 17.9974C21.839 17.9002 22.1452 17.668 22.3332 17.3518C22.5212 17.0355 22.5756 16.6612 22.4845 16.3111C22.4845 16.3111 22.4845 16.3111 22.4845 16.3111C22.4244 16.0804 22.3434 15.8543 22.2427 15.6373C21.6079 14.2351 20.1055 13.2896 18.5372 13.3048C16.6541 13.3048 14.771 13.3048 12.8879 13.3047C12.7256 13.3047 12.5632 13.3047 12.4009 13.3047Z" fill="black"/>
</svg>
