<svg width="40" height="40" viewBox="0 0 40 40" fill="none" xmlns="http://www.w3.org/2000/svg">
<path fill-rule="evenodd" clip-rule="evenodd" d="M8.33329 1.66675C6.56518 1.66675 4.86949 2.36913 3.61925 3.61937C2.36901 4.86961 1.66663 6.5653 1.66663 8.33342V31.6667C1.66663 33.4349 2.36901 35.1306 3.61925 36.3808C4.86949 37.631 6.56518 38.3334 8.33329 38.3334H31.6666C33.4347 38.3334 35.1304 37.631 36.3807 36.3808C37.6309 35.1306 38.3333 33.4349 38.3333 31.6667V8.33342C38.3333 6.5653 37.6309 4.86961 36.3807 3.61937C35.1304 2.36913 33.4347 1.66675 31.6666 1.66675H8.33329ZM6.66663 25.3034V15.0001H8.48329V16.1551C9.28663 15.5467 10.3866 15.0001 11.82 15.0001C12.4816 15.0001 13.2583 15.1917 13.8966 15.5951C14.13 15.7417 14.3566 15.9284 14.5533 16.1501C15.4996 15.4017 16.6718 14.9963 17.8783 15.0001C18.54 15.0001 19.3183 15.1917 19.9566 15.5951C20.6066 16.0067 21.2116 16.7134 21.2116 17.7284V25.3034H19.395V17.7267C19.395 17.5284 19.2933 17.3267 18.985 17.1317C18.651 16.9295 18.2687 16.8213 17.8783 16.8184C16.635 16.8184 15.785 17.4134 15.1516 18.0367V25.3034H13.3333V17.7267C13.3333 17.5284 13.2333 17.3267 12.925 17.1317C12.591 16.9295 12.2087 16.8213 11.8183 16.8184C10.185 16.8184 9.29496 17.8018 8.60163 18.5667L8.48496 18.6951V25.3034H6.66663ZM24.9733 21.0601H33.3333V20.1517C33.3329 18.9345 32.9014 17.7567 32.1152 16.8273C31.3291 15.8979 30.2391 15.2771 29.0388 15.0749C27.8384 14.8727 26.6052 15.1022 25.558 15.7227C24.5107 16.3433 23.7171 17.3147 23.318 18.4647C22.9189 19.6147 22.94 20.8689 23.3776 22.0048C23.8152 23.1407 24.6411 24.0848 25.7086 24.6698C26.7761 25.2547 28.0163 25.4426 29.2092 25.2001C30.4021 24.9576 31.4705 24.3004 32.225 23.3451L30.7983 22.2167C30.4178 22.6993 29.9114 23.0673 29.3349 23.28C28.7584 23.4928 28.1343 23.542 27.5316 23.4223C26.9288 23.3026 26.3709 23.0187 25.9195 22.6018C25.468 22.1849 25.1405 21.6514 24.9733 21.0601ZM28.1816 16.8184C27.4557 16.8182 26.7496 17.0549 26.1705 17.4926C25.5915 17.9303 25.1711 18.545 24.9733 19.2434H31.39C31.1922 18.545 30.7718 17.9303 30.1927 17.4926C29.6136 17.0549 28.9075 16.8182 28.1816 16.8184Z" fill="#5F250B"/>
</svg>
