<svg width="73" height="70" viewBox="0 0 73 70" fill="none" xmlns="http://www.w3.org/2000/svg">
<g filter="url(#filter0_d_1658_4578)">
<circle cx="36.5" cy="35.5" r="26.5" fill="#0F084B"/>
<circle cx="36.5" cy="35.5" r="27" stroke="#F0EBE9"/>
</g>
<path d="M21.3433 24.2388C21.9063 24.2677 22.7435 24.2421 23.3214 24.242L27.2922 24.2394C28.0728 24.2388 28.8565 24.2281 29.6399 24.2441C31.5527 24.2832 33.521 24.9215 34.9645 26.2068C36.4818 27.5578 37.1856 29.3425 37.2995 31.3361C37.5623 35.9377 34.4469 39.2319 29.8483 39.5113C29.3545 39.5592 28.5656 39.5276 28.0496 39.535C26.7447 39.5532 25.4117 39.5086 24.1076 39.5452L24.1087 46.9907L21.332 46.9913C21.3712 46.3524 21.3395 45.3619 21.339 44.6991L21.3359 40.1984L21.3433 24.2388Z" fill="#F8F6F5"/>
<path d="M24.1056 26.8467C25.1468 26.8344 26.23 26.8374 27.2744 26.843C28.5443 26.8831 29.8144 26.7188 31.0593 27.0626C33.8889 27.8442 35.0002 30.7435 34.2718 33.4282C34.0405 34.2806 33.676 34.8792 33.0761 35.5207C31.3889 37.1219 29.6812 36.9213 27.5448 36.9232L24.1101 36.9278C24.0831 35.8398 24.1084 34.6384 24.1088 33.5444L24.1056 26.8467Z" fill="#0F084B"/>
<path d="M51.1744 23.8086C51.2411 23.9083 51.2152 25.7854 51.2155 26.0565L51.2174 30.1747L51.2168 42.3742L51.2157 45.3475C51.2157 45.7832 51.1943 46.5865 51.2424 46.9911C50.325 47.0073 49.3626 46.9922 48.4429 46.9906C48.4198 45.416 48.4391 43.7861 48.4388 42.2071L48.4338 31.7261C48.0396 32.2636 47.6003 32.798 47.1956 33.3324C46.2191 34.6261 45.2358 35.9148 44.2459 37.1983L40.7096 41.7931C40.4547 41.5451 39.579 40.3981 39.3381 40.0754C38.5576 39.0302 37.653 37.9498 36.9023 36.8939C37.6599 35.6289 37.7453 35.4558 38.1476 34.0372C38.3134 34.2786 38.5363 34.5382 38.7118 34.7833C39.3488 35.673 40.0721 36.5521 40.7027 37.4404C40.7841 37.3019 41.0286 37.0003 41.1401 36.8552C41.4004 36.5172 41.6586 36.1775 41.9146 35.8362L45.2266 31.5109L49.2051 26.3228C49.7117 25.665 50.6465 24.3555 51.1744 23.8086Z" fill="#F8F6F5"/>
<path d="M32.2313 40.1943C32.2648 40.1985 32.2508 40.1974 32.2843 40.2263C32.3207 40.8412 32.2884 41.6285 32.2955 42.2592C32.313 43.831 32.2748 45.4207 32.3082 46.9916C31.4351 47.0098 30.505 46.993 29.6274 46.9925L29.5656 46.9878C29.5174 46.9333 29.5123 46.8664 29.5139 46.7893C29.5275 46.1364 29.5222 45.4782 29.5215 44.8255L29.5216 40.6105C30.4391 40.5907 31.3501 40.4506 32.2313 40.1943Z" fill="#F8F6F5"/>
<defs>
<filter id="filter0_d_1658_4578" x="0" y="-1" width="73" height="73" filterUnits="userSpaceOnUse" color-interpolation-filters="sRGB">
<feFlood flood-opacity="0" result="BackgroundImageFix"/>
<feColorMatrix in="SourceAlpha" type="matrix" values="0 0 0 0 0 0 0 0 0 0 0 0 0 0 0 0 0 0 127 0" result="hardAlpha"/>
<feOffset/>
<feGaussianBlur stdDeviation="4.5"/>
<feComposite in2="hardAlpha" operator="out"/>
<feColorMatrix type="matrix" values="0 0 0 0 1 0 0 0 0 1 0 0 0 0 1 0 0 0 1 0"/>
<feBlend mode="normal" in2="BackgroundImageFix" result="effect1_dropShadow_1658_4578"/>
<feBlend mode="normal" in="SourceGraphic" in2="effect1_dropShadow_1658_4578" result="shape"/>
</filter>
</defs>
</svg>
