<svg width="40" height="40" viewBox="0 0 40 40" fill="none" xmlns="http://www.w3.org/2000/svg">
<path d="M21.6666 14.9999H30.8333L21.6666 5.83325V14.9999ZM9.99996 3.33325H23.3333L33.3333 13.3333V33.3333C33.3333 34.2173 32.9821 35.0652 32.357 35.6903C31.7319 36.3154 30.884 36.6666 30 36.6666H9.99996C9.1159 36.6666 8.26806 36.3154 7.64294 35.6903C7.01782 35.0652 6.66663 34.2173 6.66663 33.3333V6.66659C6.66663 4.81659 8.14996 3.33325 9.99996 3.33325ZM23.3333 33.3333V31.6666C23.3333 29.4499 18.8833 28.3333 16.6666 28.3333C14.45 28.3333 9.99996 29.4499 9.99996 31.6666V33.3333H23.3333ZM16.6666 19.9999C15.7826 19.9999 14.9347 20.3511 14.3096 20.9762C13.6845 21.6014 13.3333 22.4492 13.3333 23.3333C13.3333 24.2173 13.6845 25.0652 14.3096 25.6903C14.9347 26.3154 15.7826 26.6666 16.6666 26.6666C17.5507 26.6666 18.3985 26.3154 19.0236 25.6903C19.6488 25.0652 20 24.2173 20 23.3333C20 22.4492 19.6488 21.6014 19.0236 20.9762C18.3985 20.3511 17.5507 19.9999 16.6666 19.9999Z" fill="#5F250B"/>
</svg>
