<svg width="43" height="43" viewBox="0 0 43 43" fill="none" xmlns="http://www.w3.org/2000/svg">
<circle cx="21.5" cy="21.5" r="21.5" fill="#F3EFEC"/>
<path d="M17.7487 15.3088C17.4863 15.3149 17.2368 15.4238 17.054 15.6122C16.8712 15.8005 16.7698 16.0532 16.7717 16.3157C16.7735 16.5781 16.8785 16.8293 17.0639 17.0151C17.2494 17.2008 17.5004 17.3062 17.7628 17.3085L25.302 17.2534L15.6359 26.9195C15.4483 27.1071 15.343 27.3614 15.343 27.6266C15.343 27.8919 15.4483 28.1462 15.6359 28.3338C15.8234 28.5213 16.0778 28.6266 16.343 28.6266C16.6082 28.6266 16.8625 28.5213 17.0501 28.3338L26.712 18.6718L26.6561 26.2018C26.6584 26.4643 26.7638 26.7153 26.9496 26.9007C27.1353 27.0862 27.3866 27.1911 27.649 27.193C27.9115 27.1949 28.1641 27.0934 28.3525 26.9107C28.5409 26.7279 28.6498 26.4784 28.6558 26.216L28.7287 16.4954C28.7298 16.3298 28.698 16.1656 28.6352 16.0123C28.5723 15.8591 28.4797 15.7199 28.3626 15.6028C28.2455 15.4857 28.1063 15.393 27.953 15.3302C27.7998 15.2673 27.6356 15.2356 27.47 15.2367L17.7487 15.3088Z" fill="#0F084B"/>
</svg>
